<?xml version="1.0" encoding="UTF-8"?>
<svg width="372px" height="334px" viewBox="98 149 372 334" xmlns="http://www.w3.org/2000/svg" xmlns:xlink="http://www.w3.org/1999/xlink" version="1.1">
 <!-- Generated by Pixelmator Pro 2.0.8 -->
 <g id="Logo">
  <defs>
   <linearGradient id="linear-gradient" gradientUnits="userSpaceOnUse" x1="171" y1="318" x2="469.048" y2="318">
    <stop offset="0" stop-color="#96d1ff" stop-opacity="1"/>
    <stop offset="1" stop-color="#53b6f9" stop-opacity="1"/>
   </linearGradient>
  </defs>
  <path id="A-copy-1" d="M283.57 154 L356.186 154 469.048 482 395.265 482 375.726 426.96 265.197 426.96 244.783 482 171 482 Z M319.441 264.08 L287.653 357.2 351.229 357.2 Z" fill-opacity="1" fill="url(#linear-gradient)" stroke="none"/>
  <defs>
   <linearGradient id="linear-gradient-1" gradientUnits="userSpaceOnUse" x1="140.284" y1="339.935" x2="396.338" y2="339.935">
    <stop offset="0" stop-color="#49aaf6" stop-opacity="1"/>
    <stop offset="1" stop-color="#399adc" stop-opacity="1"/>
   </linearGradient>
  </defs>
  <path id="A-copy" d="M236.994 197.935 L299.378 197.935 396.338 481.935 332.951 481.935 316.165 434.278 221.209 434.278 203.671 481.935 140.284 481.935 Z M267.81 293.248 L240.501 373.876 295.119 373.876 Z" fill-opacity="1" fill="url(#linear-gradient-1)" stroke="none"/>
  <path id="A-copy-2" d="M208.312 318 L229.603 318 262.694 405.551 241.061 405.551 235.332 390.859 202.925 390.859 196.939 405.551 175.306 405.551 Z M218.829 347.383 L209.509 372.239 M209.509 372.239 L228.149 372.239 M228.149 372.239 L218.829 347.383" fill="#ffffff" fill-opacity="1" stroke="none"/>
  <path id="A" d="M189.646 241.551 L248.119 241.551 339 482 279.587 482 263.853 441.651 174.851 441.651 158.413 482 99 482 Z M218.53 322.248 L192.933 390.512 244.127 390.512 Z" fill="#2075b8" fill-opacity="1" stroke="none"/>
  <path id="Rectangle" d="M209 418 L228 418 228 388 209 388 Z" fill="#ffffff" fill-opacity="1" stroke="none"/>
 </g>
</svg>
