<?xml version="1.0" encoding="UTF-8"?>
<svg width="404px" height="404px" viewBox="640 78 404 404" xmlns="http://www.w3.org/2000/svg" xmlns:xlink="http://www.w3.org/1999/xlink" version="1.1">
 <!-- Generated by Pixelmator Pro 2.0.8 -->
 <g id="New-Group">
  <path id="Ellipse" d="M1044 280 C1044 168.438 953.562 78 842 78 730.438 78 640 168.438 640 280 640 391.562 730.438 482 842 482 953.562 482 1044 391.562 1044 280 Z" fill="#2075b8" fill-opacity="1" stroke="none"/>
  <g id="Logo-copy-1">
   <defs>
    <linearGradient id="linear-gradient" gradientUnits="userSpaceOnUse" x1="750.364" y1="266" x2="992.074" y2="266">
     <stop offset="0" stop-color="#96d1ff" stop-opacity="1"/>
     <stop offset="1" stop-color="#53b6f9" stop-opacity="1"/>
    </linearGradient>
   </defs>
   <path id="A-copy-1" d="M841.656 133 L900.546 133 992.074 399 932.238 399 916.392 354.364 826.756 354.364 810.2 399 750.364 399 Z M870.746 222.272 L844.967 297.79 896.525 297.79 Z" fill-opacity="1" fill="url(#linear-gradient)" stroke="none"/>
   <defs>
    <linearGradient id="linear-gradient-1" gradientUnits="userSpaceOnUse" x1="725.455" y1="283.788" x2="933.108" y2="283.788">
     <stop offset="0" stop-color="#49aaf6" stop-opacity="1"/>
     <stop offset="1" stop-color="#399adc" stop-opacity="1"/>
    </linearGradient>
   </defs>
   <path id="A-copy" d="M803.883 168.63 L854.476 168.63 933.108 398.947 881.703 398.947 868.089 360.299 791.083 360.299 776.86 398.947 725.455 398.947 Z M828.875 245.927 L806.728 311.314 851.022 311.314 Z" fill-opacity="1" fill="url(#linear-gradient-1)" stroke="none"/>
   <path id="A-copy-2" d="M780.623 266 L797.89 266 824.726 337.002 807.182 337.002 802.536 325.087 776.255 325.087 771.401 337.002 753.857 337.002 Z M789.152 289.829 L781.594 309.986 M781.594 309.986 L796.711 309.986 M796.711 309.986 L789.152 289.829" fill="#2075b8" fill-opacity="1" stroke="none"/>
   <path id="A" d="M765.486 204.002 L812.906 204.002 886.608 399 838.426 399 825.666 366.278 753.488 366.278 740.156 399 691.974 399 Z M788.91 269.445 L768.152 324.805 809.669 324.805 Z" fill="#ffffff" fill-opacity="1" stroke="none"/>
   <path id="Rectangle" d="M781.181 347.098 L796.59 347.098 796.59 322.768 781.181 322.768 Z" fill="#2075b8" fill-opacity="1" stroke="none"/>
  </g>
 </g>
</svg>
